<?xml version="1.0" encoding="utf-8"?>
<!-- Generator: Adobe Illustrator 24.0.0, SVG Export Plug-In . SVG Version: 6.00 Build 0)  -->
<svg version="1.1" id="Layer_2" xmlns="http://www.w3.org/2000/svg" xmlns:xlink="http://www.w3.org/1999/xlink" x="0px" y="0px"
	 viewBox="0 0 1080 1080" style="enable-background:new 0 0 1080 1080;" xml:space="preserve">
<style type="text/css">
	.st0{fill:none;stroke:#ED1C24;stroke-miterlimit:10;}
</style>
<g>
	<path d="M612.89,439.43L612.89,439.43c-17.17,0-31.1-13.92-31.1-31.1v-39.02c0-17.17,13.92-31.1,31.1-31.1h0
		c17.17,0,31.1,13.92,31.1,31.1v39.02C643.99,425.51,630.07,439.43,612.89,439.43z"/>
	<path d="M723.26,439.43L723.26,439.43c-17.17,0-31.1-13.92-31.1-31.1V299.19c0-17.17,13.92-31.1,31.1-31.1h0
		c17.17,0,31.1,13.92,31.1,31.1v109.15C754.36,425.51,740.44,439.43,723.26,439.43z"/>
	<path d="M833.02,439.43L833.02,439.43c-17.17,0-31.1-13.92-31.1-31.1v-74.09c0-17.17,13.92-31.1,31.1-31.1h0
		c17.17,0,31.1,13.92,31.1,31.1v74.09C864.11,425.51,850.19,439.43,833.02,439.43z"/>
	<path d="M393.7,376.09h-26.17c-24.61,0-44.56,19.95-44.56,44.56v24.95v161.43h-53.66c-55.9,0-101.22,45.32-101.22,101.22v0
		c0,57.25,46.41,103.66,103.66,103.66h25.61c53.21,0,96.34-43.13,96.34-96.34V607.03V445.6h53.84c33.52,0,60.7-27.18,60.7-60.7
		v-8.81H393.7z M322.97,701.54c0,22.56-18.29,40.85-40.85,40.85h-7.32c-19.87,0-35.98-16.11-35.98-35.98v-4.27
		c0-14.14,11.47-25.61,25.61-25.61h53.05c3.03,0,5.49,2.46,5.49,5.49V701.54z"/>
	<polyline points="483,601.4 437.3,601.4 437.3,586.6 	"/>
	<path class="st0" d="M437.3,586.6"/>
	<path class="st0" d="M479.86,525.14"/>
	<g>
		<path d="M436.75,588.26L464.09,521h-26v-13.4h41.81v13.13L452.56,588h27.34v13.4h-43.15V588.26z"/>
		<path d="M514.34,561.46l-17.82-53.87h15.68l10.05,34.44h0.27l10.05-34.44h14.34l-17.82,53.87v39.93h-14.74V561.46z"/>
		<path d="M566.19,507.6h40.2V521h-25.46v24.79h20.23v13.4h-20.23V588h25.46v13.4h-40.2V507.6z"/>
		<path d="M627.43,507.6h21.04l9.38,67.13h0.27l9.38-67.13h21.04v93.8H674.6v-71.02h-0.27l-10.72,71.02h-12.33l-10.72-71.02h-0.27
			v71.02h-12.86V507.6z"/>
		<path d="M712.12,507.6h14.74v93.8h-14.74V507.6z"/>
		<path d="M750.44,507.6h21.84c7.59,0,13.13,1.76,16.62,5.29c3.48,3.53,5.23,8.96,5.23,16.28v5.76c0,9.74-3.22,15.9-9.65,18.49v0.27
			c3.57,1.07,6.1,3.26,7.57,6.57c1.47,3.31,2.21,7.73,2.21,13.27v16.48c0,2.68,0.09,4.85,0.27,6.5c0.18,1.65,0.62,3.28,1.34,4.89
			h-15.01c-0.54-1.52-0.89-2.95-1.07-4.29c-0.18-1.34-0.27-3.75-0.27-7.24v-17.15c0-4.29-0.69-7.28-2.08-8.98
			c-1.39-1.7-3.78-2.55-7.17-2.55h-5.09v40.2h-14.74V507.6z M770.54,547.8c2.95,0,5.16-0.76,6.63-2.28
			c1.47-1.52,2.21-4.06,2.21-7.64v-7.24c0-3.39-0.6-5.85-1.81-7.37c-1.21-1.52-3.1-2.28-5.7-2.28h-6.7v26.8H770.54z"/>
		<path d="M828.43,507.6h19.97l15.28,93.8h-14.74l-2.68-18.63v0.27H829.5l-2.68,18.36h-13.67L828.43,507.6z M844.51,570.31
			l-6.57-46.36h-0.27l-6.43,46.36H844.51z"/>
		<path d="M444.32,717.71c-3.71-4.02-5.56-9.69-5.56-17.02V650.3c0-7.32,1.85-13,5.56-17.02c3.71-4.02,9.09-6.03,16.15-6.03
			c7.06,0,12.44,2.01,16.15,6.03c3.71,4.02,5.56,9.69,5.56,17.02v9.92h-13.94v-10.85c0-5.81-2.46-8.71-7.37-8.71
			c-4.91,0-7.37,2.9-7.37,8.71v52.39c0,5.72,2.46,8.58,7.37,8.58c4.91,0,7.37-2.86,7.37-8.58v-14.34h13.94v13.27
			c0,7.33-1.86,13-5.56,17.02c-3.71,4.02-9.09,6.03-16.15,6.03C453.41,723.74,448.03,721.73,444.32,717.71z"/>
		<path d="M508.57,717.57c-3.84-4.11-5.76-9.92-5.76-17.42v-49.31c0-7.5,1.92-13.31,5.76-17.42c3.84-4.11,9.38-6.16,16.62-6.16
			c7.24,0,12.77,2.06,16.62,6.16c3.84,4.11,5.76,9.92,5.76,17.42v49.31c0,7.5-1.92,13.31-5.76,17.42
			c-3.84,4.11-9.38,6.16-16.62,6.16C517.95,723.74,512.41,721.68,508.57,717.57z M532.83,701.09V649.9c0-6.16-2.55-9.25-7.64-9.25
			c-5.09,0-7.64,3.08-7.64,9.25v51.19c0,6.16,2.55,9.25,7.64,9.25C530.28,710.34,532.83,707.25,532.83,701.09z"/>
		<path d="M570.08,628.6h18.49l14.34,56.15h0.27V628.6h13.13v93.8h-15.14l-17.69-68.47h-0.27v68.47h-13.13V628.6z"/>
		<path d="M644.51,717.71c-3.71-4.02-5.56-9.69-5.56-17.02V650.3c0-7.32,1.85-13,5.56-17.02c3.71-4.02,9.09-6.03,16.15-6.03
			c7.06,0,12.44,2.01,16.15,6.03c3.71,4.02,5.56,9.69,5.56,17.02v9.92h-13.94v-10.85c0-5.81-2.46-8.71-7.37-8.71
			c-4.91,0-7.37,2.9-7.37,8.71v52.39c0,5.72,2.46,8.58,7.37,8.58c4.91,0,7.37-2.86,7.37-8.58v-14.34h13.94v13.27
			c0,7.33-1.85,13-5.56,17.02c-3.71,4.02-9.09,6.03-16.15,6.03C653.6,723.74,648.22,721.73,644.51,717.71z"/>
		<path d="M703.81,628.6h40.2V642h-25.46v24.79h20.23v13.4h-20.23V709h25.46v13.4h-40.2V628.6z"/>
		<path d="M765.05,628.6h21.84c7.59,0,13.13,1.76,16.62,5.29c3.48,3.53,5.23,8.96,5.23,16.28v5.76c0,9.74-3.22,15.9-9.65,18.49v0.27
			c3.57,1.07,6.1,3.26,7.57,6.57c1.47,3.31,2.21,7.73,2.21,13.27v16.48c0,2.68,0.09,4.85,0.27,6.5c0.18,1.65,0.62,3.28,1.34,4.89
			h-15.01c-0.54-1.52-0.89-2.95-1.07-4.29c-0.18-1.34-0.27-3.75-0.27-7.24v-17.15c0-4.29-0.69-7.28-2.08-8.98
			c-1.39-1.7-3.78-2.55-7.17-2.55h-5.09v40.2h-14.74V628.6z M785.15,668.8c2.95,0,5.16-0.76,6.63-2.28
			c1.47-1.52,2.21-4.06,2.21-7.64v-7.24c0-3.39-0.6-5.85-1.81-7.37c-1.21-1.52-3.1-2.28-5.7-2.28h-6.7v26.8H785.15z"/>
		<path d="M842.9,642h-15.41v-13.4h45.56V642h-15.41v80.4H842.9V642z"/>
	</g>
</g>
</svg>
