<?xml version="1.0" encoding="utf-8"?>
<!-- Generator: Adobe Illustrator 24.0.0, SVG Export Plug-In . SVG Version: 6.00 Build 0)  -->
<svg version="1.1" id="Layer_1" xmlns="http://www.w3.org/2000/svg" xmlns:xlink="http://www.w3.org/1999/xlink" x="0px" y="0px"
	 viewBox="0 0 700 250" style="enable-background:new 0 0 700 250;" xml:space="preserve">
<style type="text/css">
	.st0{fill:#7A4C9E;}
	.st1{enable-background:new    ;}
	.st2{fill:#FFFFFF;}
</style>
<g>
	<rect x="58.5" y="66.8" transform="matrix(0.9927 -0.1204 0.1204 0.9927 -9.1219 38.2163)" width="506.3" height="55.6"/>
	
		<rect x="217.4" y="141.5" transform="matrix(0.9986 -5.379741e-02 5.379741e-02 0.9986 -8.62 23.3577)" class="st0" width="424.3" height="60.6"/>
	<g class="st1">
		<path class="st2" d="M234.1,173l5.7-0.3c1.6-0.1,2.8,0.4,3.6,1.3c0.8,1,1.3,2.6,1.4,4.9c0.1,1.6,0,2.8-0.3,3.9
			c-0.3,1-0.7,1.8-1.4,2.3c-0.7,0.5-1.7,0.8-3,0.9l-2.5,0.1l0.4,6.9l-2.9,0.2L234.1,173z M240.5,182.9c0.7,0,1.2-0.4,1.4-1
			c0.2-0.6,0.3-1.5,0.2-2.7c-0.1-1.1-0.2-1.9-0.5-2.7c-0.3-0.7-0.7-1-1.4-1l-3.1,0.2l0.4,7.4L240.5,182.9z"/>
		<path class="st2" d="M246.8,192.5l3.7-20.4l3.9-0.2l5.9,19.9l-3.1,0.2l-1-3.8l-5.7,0.3l-0.6,3.9L246.8,192.5z M251,185.3l4.4-0.2
			l-2.7-10L251,185.3z"/>
		<path class="st2" d="M262.9,191.6l-1.1-20.2l6.3-0.3c1.3-0.1,2.3,0.1,3,0.6c0.7,0.5,1.3,1.1,1.6,2s0.5,1.9,0.6,3.1
			c0,0.8,0,1.6,0,2.3c-0.1,0.7-0.2,1.4-0.5,2c-0.3,0.6-0.7,1-1.3,1.4l3.3,8.4l-3,0.2l-3-7.8l-3.3,0.2l0.4,8L262.9,191.6z
			 M265.2,180.6l3.6-0.2c0.5,0,0.9-0.2,1.1-0.5s0.4-0.7,0.5-1.1c0.1-0.5,0.1-1,0.1-1.6c0-0.5-0.1-1.1-0.2-1.6
			c-0.1-0.5-0.3-0.9-0.5-1.2c-0.3-0.3-0.6-0.5-1.1-0.4l-3.7,0.2L265.2,180.6z"/>
		<path class="st2" d="M280,190.7l-0.9-17.1l-4,0.2l-0.2-3.1l11-0.6l0.2,3.1l-4,0.2l0.9,17.1L280,190.7z"/>
		<path class="st2" d="M292,182.3l-5.7-12.1l3.1-0.2l3.9,8.5l2.9-8.8l3-0.2l-4.2,12.7l0.4,7.7l-2.9,0.2L292,182.3z"/>
		<path class="st2" d="M313.3,189.3c-1.3,0.1-2.4-0.1-3.2-0.4c-0.9-0.3-1.5-0.8-2-1.4s-0.9-1.4-1.1-2.2c-0.2-0.9-0.4-1.8-0.4-2.8
			l-0.3-6.3c-0.1-1,0-2,0.1-2.9c0.1-0.9,0.4-1.7,0.8-2.4c0.4-0.7,1.1-1.3,1.9-1.7c0.8-0.4,1.9-0.7,3.2-0.7c1.3-0.1,2.3,0.1,3.1,0.4
			c0.8,0.4,1.5,0.9,2,1.5c0.5,0.7,0.9,1.5,1.1,2.4c0.2,0.9,0.4,1.9,0.4,2.9l0.3,5.9c0.1,1,0,1.9-0.1,2.8c-0.1,0.9-0.4,1.7-0.8,2.4
			c-0.4,0.7-1,1.3-1.8,1.7C315.6,189,314.6,189.2,313.3,189.3z M313.1,186.1c1.1-0.1,1.9-0.4,2.4-0.9c0.5-0.5,0.7-1.5,0.7-2.9
			l-0.4-7.3c-0.1-1.4-0.4-2.3-1-2.8c-0.6-0.5-1.4-0.7-2.5-0.7c-1.1,0.1-1.9,0.4-2.5,0.9c-0.6,0.5-0.9,1.5-0.8,2.9l0.4,7.3
			c0.1,1.4,0.4,2.3,1.1,2.8C311.2,186,312,186.2,313.1,186.1z"/>
		<path class="st2" d="M328.9,188.4c-1.2,0.1-2.3,0-3.1-0.3c-0.8-0.3-1.5-0.7-1.9-1.3c-0.5-0.6-0.8-1.3-1-2.1
			c-0.2-0.8-0.4-1.7-0.4-2.7l-0.7-13.8l2.9-0.2l0.8,14c0.1,1.3,0.4,2.2,1,2.6c0.6,0.4,1.4,0.6,2.4,0.6c1-0.1,1.8-0.3,2.2-0.8
			c0.5-0.5,0.7-1.4,0.6-2.7l-0.8-14l2.9-0.2l0.7,13.6c0.1,1,0,1.9-0.1,2.7s-0.4,1.6-0.8,2.3c-0.4,0.7-1,1.2-1.7,1.6
			C331.2,188.1,330.2,188.4,328.9,188.4z"/>
		<path class="st2" d="M341,187.4l-0.9-17.1l-4,0.2l-0.2-3.1l11-0.6l0.2,3.1l-4,0.2l0.9,17.1L341,187.4z"/>
		<path class="st2" d="M352.7,166.6l2.8-0.2l3.3,13.8l1.8-14.1l2.5-0.1l3.7,13.6l1.6-13.9l2.8-0.2l-2.7,20.4l-2.5,0.1l-3.8-14.2
			l-2,14.5l-2.6,0.1L352.7,166.6z"/>
		<path class="st2" d="M374,182.6l2.6-0.1l-0.8-14.1l-2.6,0.1l-0.2-3l8.2-0.4l0.2,3l-2.6,0.1l0.8,14.1l2.6-0.1l0.2,3l-8.2,0.4
			L374,182.6z"/>
		<path class="st2" d="M388.4,184.9l-0.9-17.1l-4,0.2l-0.2-3.1l11-0.6l0.2,3.1l-4,0.2l0.9,17.1L388.4,184.9z"/>
		<path class="st2" d="M396.5,164.3l2.9-0.2l0.5,8.6l6.4-0.3l-0.5-8.6l2.9-0.2l1.1,20.2l-2.9,0.2l-0.5-8.4l-6.4,0.3l0.5,8.4
			l-2.9,0.2L396.5,164.3z"/>
		<path class="st2" d="M424.6,183.3c-1.2,0.1-2.3,0-3.1-0.3s-1.5-0.7-1.9-1.3c-0.5-0.6-0.8-1.3-1-2.1c-0.2-0.8-0.4-1.7-0.4-2.7
			l-0.7-13.8l2.9-0.2l0.8,14c0.1,1.3,0.4,2.2,1,2.6s1.4,0.6,2.4,0.6c1-0.1,1.8-0.3,2.2-0.8c0.5-0.5,0.7-1.4,0.6-2.7l-0.8-14l2.9-0.2
			l0.7,13.6c0.1,1,0,1.9-0.1,2.7s-0.4,1.6-0.8,2.3c-0.4,0.7-1,1.2-1.7,1.6C426.8,183,425.8,183.2,424.6,183.3z"/>
		<path class="st2" d="M439.1,182.5c-1,0.1-2-0.1-3-0.3c-1-0.3-1.9-0.7-2.7-1.2l0.8-3c0.6,0.4,1.3,0.7,2.1,1
			c0.8,0.3,1.6,0.4,2.5,0.4c0.6,0,1-0.2,1.3-0.4c0.3-0.3,0.5-0.6,0.6-1c0.1-0.4,0.1-0.9,0.1-1.5c0-0.4-0.1-0.7-0.2-1
			c-0.1-0.3-0.3-0.6-0.6-0.8c-0.3-0.3-0.7-0.5-1.3-0.7l-2.5-0.9c-0.8-0.3-1.4-0.7-1.9-1.2c-0.5-0.5-0.8-1.2-1-1.9
			c-0.2-0.7-0.3-1.5-0.4-2.4c-0.1-1.3,0.1-2.3,0.5-3.1c0.4-0.8,1-1.5,1.7-1.9c0.7-0.4,1.6-0.7,2.5-0.7c1-0.1,1.8,0,2.7,0.2
			c0.8,0.2,1.6,0.6,2.3,1.1l-0.7,2.9c-0.6-0.3-1.2-0.6-1.8-0.8s-1.3-0.3-2-0.2c-0.7,0-1.3,0.2-1.7,0.6c-0.4,0.3-0.6,0.9-0.6,1.8
			c0,0.7,0.2,1.2,0.5,1.6c0.3,0.4,0.8,0.7,1.5,0.9l2.5,0.9c1,0.4,1.8,1,2.3,1.8s0.9,2.1,0.9,3.7c0.1,1.1,0,2.2-0.3,3.1
			c-0.3,0.9-0.8,1.7-1.4,2.3C441,182.1,440.2,182.5,439.1,182.5z"/>
		<path class="st2" d="M450.7,161.3l8.8-0.5l0.2,3.1l-5.9,0.3l0.3,5.5l5.5-0.3l0.2,2.9l-5.5,0.3l0.5,8.7l-2.9,0.2L450.7,161.3z"/>
		<path class="st2" d="M469.5,180.9c-1.3,0.1-2.4-0.1-3.2-0.4c-0.9-0.3-1.5-0.8-2-1.4c-0.5-0.6-0.9-1.4-1.1-2.2
			c-0.2-0.9-0.4-1.8-0.4-2.8l-0.3-6.3c-0.1-1,0-2,0.1-2.9s0.4-1.7,0.8-2.4c0.4-0.7,1.1-1.3,1.9-1.7c0.8-0.4,1.9-0.7,3.2-0.7
			c1.3-0.1,2.3,0.1,3.1,0.4c0.8,0.4,1.5,0.9,2,1.5c0.5,0.7,0.9,1.5,1.1,2.4c0.2,0.9,0.4,1.9,0.4,2.9l0.3,5.9c0.1,1,0,1.9-0.1,2.8
			c-0.1,0.9-0.4,1.7-0.8,2.4s-1,1.3-1.8,1.7C471.8,180.6,470.8,180.8,469.5,180.9z M469.4,177.7c1.1-0.1,1.9-0.4,2.4-0.9
			c0.5-0.5,0.7-1.5,0.7-2.9l-0.4-7.3c-0.1-1.4-0.4-2.3-1-2.8c-0.6-0.5-1.4-0.7-2.5-0.7c-1.1,0.1-1.9,0.4-2.5,0.9s-0.9,1.5-0.8,2.9
			l0.4,7.3c0.1,1.4,0.4,2.3,1.1,2.8C467.4,177.6,468.3,177.8,469.4,177.7z"/>
		<path class="st2" d="M479.2,180l-1.1-20.2l6.3-0.3c1.3-0.1,2.3,0.1,3,0.6c0.7,0.5,1.3,1.1,1.6,2c0.3,0.9,0.5,1.9,0.6,3.1
			c0,0.8,0,1.6,0,2.3c-0.1,0.7-0.2,1.4-0.5,2c-0.3,0.6-0.7,1-1.3,1.4l3.3,8.4l-3,0.2l-3-7.8l-3.3,0.2l0.4,8L479.2,180z M481.5,169
			l3.6-0.2c0.5,0,0.9-0.2,1.1-0.5c0.2-0.3,0.4-0.7,0.5-1.1c0.1-0.5,0.1-1,0.1-1.6c0-0.5-0.1-1.1-0.2-1.6c-0.1-0.5-0.3-0.9-0.5-1.2
			c-0.3-0.3-0.6-0.5-1.1-0.4l-3.7,0.2L481.5,169z"/>
		<path class="st2" d="M501.4,178.8l-0.9-17.1l-4,0.2l-0.2-3.1l11-0.6l0.2,3.1l-4,0.2l0.9,17.1L501.4,178.8z"/>
		<path class="st2" d="M509.5,158.2l2.9-0.2l0.5,8.6l6.4-0.3l-0.5-8.6l2.9-0.2l1.1,20.2l-2.9,0.2l-0.5-8.4l-6.4,0.3l0.5,8.4
			l-2.9,0.2L509.5,158.2z"/>
		<path class="st2" d="M526.6,177.5l-1.1-20.2l6.3-0.3c1.3-0.1,2.3,0.1,3,0.6c0.7,0.5,1.3,1.1,1.6,2c0.3,0.9,0.5,1.9,0.6,3.1
			c0,0.8,0,1.6,0,2.3c-0.1,0.7-0.2,1.4-0.5,2c-0.3,0.6-0.7,1-1.3,1.4l3.3,8.4l-3,0.2l-3-7.8l-3.3,0.2l0.4,8L526.6,177.5z
			 M528.9,166.5l3.6-0.2c0.5,0,0.9-0.2,1.1-0.5s0.4-0.7,0.5-1.1c0.1-0.5,0.1-1,0.1-1.6c0-0.5-0.1-1.1-0.2-1.6
			c-0.1-0.5-0.3-0.9-0.5-1.2c-0.3-0.3-0.6-0.5-1.1-0.4l-3.7,0.2L528.9,166.5z"/>
		<path class="st2" d="M540.1,156.5l9.5-0.5l0.2,3.1l-6.6,0.4l0.3,5.4l5.9-0.3l0.2,2.9l-5.9,0.3l0.3,5.8l6.7-0.4l0.2,3.1l-9.6,0.5
			L540.1,156.5z"/>
		<path class="st2" d="M552.9,155.8l9.5-0.5l0.2,3.1l-6.6,0.4l0.3,5.4l5.9-0.3l0.2,2.9l-5.9,0.3l0.3,5.8l6.7-0.4l0.2,3.1l-9.6,0.5
			L552.9,155.8z"/>
		<path class="st2" d="M571.8,175l-1.1-20.2l6.3-0.3c1.4-0.1,2.5,0.2,3.3,0.8s1.4,1.4,1.8,2.4c0.4,1,0.6,2.2,0.7,3.5l0.3,6.2
			c0.1,1.3,0,2.5-0.3,3.6c-0.3,1.1-0.8,1.9-1.5,2.6c-0.7,0.6-1.8,1-3.2,1.1L571.8,175z M574.5,171.7l3.1-0.2c1-0.1,1.7-0.4,2.1-0.9
			c0.3-0.5,0.5-1.4,0.4-2.5l-0.4-7.2c-0.1-1.1-0.3-1.9-0.7-2.5c-0.4-0.5-1.1-0.8-2.1-0.7l-3.1,0.2L574.5,171.7z"/>
		<path class="st2" d="M585.6,174.3l3.7-20.4l3.9-0.2l5.9,19.9l-3.1,0.2l-1-3.8l-5.7,0.3l-0.6,3.9L585.6,174.3z M589.8,167.1
			l4.4-0.2l-2.7-10L589.8,167.1z"/>
		<path class="st2" d="M603.3,165.6l-5.7-12.1l3.1-0.2l3.9,8.5l2.9-8.8l3-0.2l-4.2,12.7l0.4,7.7l-2.9,0.2L603.3,165.6z"/>
		<path class="st2" d="M618.2,172.9c-1,0.1-2-0.1-3-0.3c-1-0.3-1.9-0.7-2.7-1.2l0.8-3c0.6,0.4,1.3,0.7,2.1,1
			c0.8,0.3,1.6,0.4,2.5,0.4c0.6,0,1-0.2,1.3-0.4c0.3-0.3,0.5-0.6,0.6-1c0.1-0.4,0.1-0.9,0.1-1.5c0-0.4-0.1-0.7-0.2-1
			c-0.1-0.3-0.3-0.6-0.6-0.8c-0.3-0.3-0.7-0.5-1.3-0.7l-2.5-0.9c-0.8-0.3-1.4-0.7-1.9-1.2c-0.5-0.5-0.8-1.2-1-1.9s-0.3-1.5-0.4-2.4
			c-0.1-1.3,0.1-2.3,0.5-3.1c0.4-0.8,1-1.5,1.7-1.9c0.7-0.4,1.6-0.7,2.5-0.7c1-0.1,1.8,0,2.7,0.2c0.8,0.2,1.6,0.6,2.3,1.1l-0.7,2.9
			c-0.6-0.3-1.2-0.6-1.8-0.8s-1.3-0.3-2-0.2c-0.7,0-1.3,0.2-1.7,0.6c-0.4,0.3-0.6,0.9-0.6,1.8c0,0.7,0.2,1.2,0.5,1.6
			c0.3,0.4,0.8,0.7,1.5,0.9l2.5,0.9c1,0.4,1.8,1,2.3,1.8c0.5,0.9,0.9,2.1,0.9,3.7c0.1,1.1,0,2.2-0.3,3.1c-0.3,0.9-0.8,1.7-1.4,2.3
			C620.2,172.5,619.3,172.8,618.2,172.9z"/>
		<path class="st2" d="M626.5,166.5c-0.2-1.8-0.4-3.5-0.6-5.1c-0.2-1.6-0.4-3.1-0.5-4.4c-0.1-1.3-0.3-2.4-0.4-3.3s-0.1-1.4-0.2-1.7
			l2.5-0.1c0,0.2,0,0.8,0,1.6c0,0.8,0,1.9,0,3.2c0,1.3,0,2.8-0.1,4.5c0,1.7-0.1,3.4-0.1,5.3L626.5,166.5z M625.8,172.1l-0.2-3.6
			l2.8-0.1l0.2,3.6L625.8,172.1z"/>
	</g>
	<g class="st1">
		<path class="st2" d="M74.1,134.8l2.3-20.6l3.9-0.5l7.2,19.4l-3.1,0.4l-1.3-3.7l-5.7,0.7l-0.4,3.9L74.1,134.8z M77.8,127.3l4.3-0.5
			l-3.3-9.8L77.8,127.3z"/>
		<path class="st2" d="M92.7,112.2l5.7-0.7c1.6-0.2,2.8,0.2,3.7,1.1c0.9,0.9,1.5,2.5,1.8,4.8c0.2,1.5,0.2,2.8,0,3.9
			c-0.2,1-0.6,1.8-1.3,2.4c-0.7,0.6-1.6,0.9-2.9,1.1l-2.5,0.3l0.8,6.9l-2.9,0.4L92.7,112.2z M99.8,121.7c0.7-0.1,1.2-0.4,1.4-1.1
			c0.2-0.6,0.2-1.5,0-2.7c-0.1-1.1-0.3-1.9-0.7-2.6c-0.3-0.7-0.8-1-1.5-0.9l-3,0.4l0.9,7.3L99.8,121.7z"/>
		<path class="st2" d="M105.7,110.6l2.9-0.4l2,16.9l6-0.7l0.4,3.2l-8.9,1.1L105.7,110.6z"/>
		<path class="st2" d="M118.5,129.4l2.3-20.6l3.9-0.5l7.2,19.4l-3.1,0.4l-1.3-3.7l-5.7,0.7l-0.4,3.9L118.5,129.4z M122.2,121.9
			l4.3-0.5l-3.3-9.8L122.2,121.9z"/>
		<path class="st2" d="M140.1,127.2c-1.3,0.2-2.3,0.1-3.2-0.1c-0.8-0.3-1.5-0.7-2-1.2c-0.5-0.6-0.9-1.3-1.1-2.1
			c-0.3-0.8-0.4-1.7-0.6-2.7l-0.8-6.7c-0.1-1-0.2-2-0.1-2.8s0.2-1.7,0.6-2.4c0.3-0.7,0.9-1.3,1.7-1.7c0.8-0.5,1.8-0.8,3.1-0.9
			c1.2-0.1,2.2-0.1,3,0.2c0.8,0.3,1.4,0.7,1.9,1.3c0.5,0.6,0.8,1.3,1.1,2.1c0.2,0.8,0.4,1.8,0.5,2.8l0,0.2l-2.8,0.8l-0.1-1
			c-0.1-0.9-0.3-1.7-0.5-2.1c-0.2-0.5-0.6-0.8-1-1c-0.4-0.2-1-0.2-1.8-0.1c-1.1,0.1-1.8,0.5-2.3,1c-0.5,0.5-0.6,1.5-0.4,2.9l0.9,7.6
			c0.1,0.9,0.3,1.6,0.6,2.1c0.3,0.5,0.7,0.7,1.2,0.9c0.5,0.1,1.1,0.1,1.8,0c0.7-0.1,1.3-0.2,1.7-0.5c0.4-0.2,0.6-0.6,0.7-1.1
			c0.1-0.5,0.1-1.2,0-2.2l-0.1-0.6l2.8-0.3l0,0.4c0.1,1,0.2,1.9,0.1,2.8c0,0.8-0.2,1.6-0.5,2.3c-0.3,0.7-0.8,1.2-1.5,1.7
			C142.3,126.7,141.4,127,140.1,127.2z"/>
		<path class="st2" d="M146.4,105.7l9.5-1.1l0.4,3l-6.6,0.8l0.6,5.3l5.8-0.7l0.4,2.9l-5.8,0.7l0.7,5.7l6.7-0.8l0.4,3l-9.6,1.2
			L146.4,105.7z"/>
		<path class="st2" d="M169.1,123.3l-2.1-17l-4,0.5l-0.4-3.1l10.9-1.3l0.4,3.1l-4,0.5l2.1,17L169.1,123.3z"/>
		<path class="st2" d="M184.4,121.8c-1.3,0.2-2.4,0.1-3.3-0.2c-0.9-0.3-1.6-0.7-2.1-1.3c-0.5-0.6-1-1.3-1.2-2.2
			c-0.3-0.8-0.5-1.8-0.6-2.7l-0.8-6.3c-0.1-1-0.1-2-0.1-2.9c0.1-0.9,0.3-1.7,0.7-2.4c0.4-0.7,1-1.3,1.8-1.8c0.8-0.5,1.8-0.8,3.1-1
			c1.2-0.2,2.3-0.1,3.2,0.2c0.9,0.3,1.5,0.8,2.1,1.4c0.5,0.6,1,1.4,1.2,2.3c0.3,0.9,0.5,1.8,0.6,2.8l0.7,5.8c0.1,1,0.1,1.9,0.1,2.8
			c-0.1,0.9-0.3,1.7-0.7,2.5c-0.4,0.7-0.9,1.4-1.7,1.9C186.7,121.3,185.7,121.6,184.4,121.8z M184,118.6c1.1-0.1,1.9-0.5,2.4-1
			c0.5-0.6,0.6-1.5,0.5-2.9l-0.9-7.3c-0.2-1.3-0.5-2.3-1.2-2.7c-0.6-0.5-1.5-0.6-2.5-0.5c-1.1,0.1-1.9,0.5-2.5,1.1
			c-0.6,0.6-0.8,1.6-0.6,2.9l0.9,7.3c0.2,1.4,0.6,2.3,1.3,2.7C182.1,118.6,183,118.8,184,118.6z"/>
		<path class="st2" d="M207.9,125.9l-4-6.6c-1.4,0-2.5-0.3-3.3-0.8s-1.4-1.3-1.9-2.3c-0.4-1-0.7-2.1-0.8-3.3l-0.8-6.3
			c-0.1-1-0.1-2-0.1-2.9c0.1-0.9,0.3-1.7,0.7-2.4c0.4-0.7,1-1.3,1.8-1.8c0.8-0.5,1.8-0.8,3.1-1c1.2-0.2,2.3-0.1,3.2,0.2
			s1.5,0.8,2.1,1.4c0.5,0.6,1,1.4,1.2,2.3c0.3,0.9,0.5,1.8,0.6,2.8l0.7,5.8c0.1,1.2,0.1,2.3,0,3.4c-0.1,1.1-0.5,2-1.1,2.8
			c-0.6,0.8-1.5,1.4-2.8,1.7l3.1,5.1L207.9,125.9z M204.8,116.1c1.1-0.1,1.9-0.5,2.4-1c0.5-0.6,0.6-1.5,0.5-2.9l-0.9-7.3
			c-0.2-1.3-0.5-2.3-1.2-2.7c-0.6-0.5-1.5-0.6-2.5-0.5c-1.1,0.1-1.9,0.5-2.5,1.1c-0.6,0.6-0.8,1.6-0.6,2.9l0.9,7.3
			c0.2,1.4,0.6,2.3,1.3,2.7C202.8,116.1,203.7,116.2,204.8,116.1z"/>
		<path class="st2" d="M220.7,117.4c-1.2,0.1-2.3,0.1-3.1-0.1c-0.8-0.2-1.5-0.6-2-1.2c-0.5-0.6-0.9-1.2-1.2-2
			c-0.3-0.8-0.5-1.7-0.6-2.6l-1.7-13.7l2.9-0.4l1.7,13.9c0.2,1.3,0.5,2.2,1.2,2.6c0.6,0.4,1.4,0.5,2.4,0.4c1-0.1,1.7-0.4,2.2-1
			c0.4-0.5,0.6-1.4,0.4-2.7l-1.7-13.9l2.9-0.4l1.6,13.5c0.1,1,0.1,1.9,0.1,2.7c-0.1,0.9-0.3,1.6-0.6,2.3c-0.3,0.7-0.9,1.2-1.6,1.7
			C222.9,116.9,221.9,117.2,220.7,117.4z"/>
		<path class="st2" d="M227.7,95.9l9.5-1.1l0.4,3l-6.6,0.8l0.6,5.3l5.8-0.7l0.4,2.9l-5.8,0.7l0.7,5.7l6.7-0.8l0.4,3l-9.6,1.2
			L227.7,95.9z"/>
		<path class="st2" d="M240.4,94.3l2.2-0.3l9.2,12.8l-1.7-13.7l2.6-0.3l2.4,20l-2.2,0.3l-9.1-12.6l1.6,13.5l-2.6,0.3L240.4,94.3z"/>
		<path class="st2" d="M264.6,112.1c-1.3,0.2-2.3,0.1-3.2-0.1c-0.8-0.3-1.5-0.7-2-1.2s-0.9-1.3-1.1-2.1c-0.3-0.8-0.4-1.7-0.6-2.7
			l-0.8-6.7c-0.1-1-0.2-2-0.1-2.8c0-0.9,0.2-1.7,0.6-2.4c0.3-0.7,0.9-1.3,1.7-1.7c0.8-0.5,1.8-0.8,3.1-0.9c1.2-0.1,2.2-0.1,3,0.2
			c0.8,0.3,1.4,0.7,1.9,1.3c0.5,0.6,0.8,1.3,1.1,2.1c0.2,0.8,0.4,1.8,0.5,2.8l0,0.2l-2.8,0.8l-0.1-1c-0.1-0.9-0.3-1.7-0.5-2.1
			s-0.6-0.8-1-1c-0.4-0.2-1-0.2-1.8-0.1c-1.1,0.1-1.8,0.5-2.3,1c-0.5,0.5-0.6,1.5-0.4,2.9l0.9,7.6c0.1,0.9,0.3,1.6,0.6,2.1
			c0.3,0.5,0.7,0.7,1.2,0.9c0.5,0.1,1.1,0.1,1.8,0c0.7-0.1,1.3-0.2,1.7-0.5s0.6-0.6,0.7-1.1c0.1-0.5,0.1-1.2,0-2.2l-0.1-0.6l2.8-0.3
			l0,0.4c0.1,1,0.2,1.9,0.1,2.8c0,0.8-0.2,1.6-0.5,2.3c-0.3,0.7-0.8,1.2-1.5,1.7C266.9,111.6,265.9,111.9,264.6,112.1z"/>
		<path class="st2" d="M271,90.6l2.9-0.4l1,8.5l6.3-0.8l-1-8.5l2.9-0.4l2.4,20l-2.9,0.4l-1-8.3l-6.3,0.8l1,8.3l-2.9,0.4L271,90.6z"
			/>
		<path class="st2" d="M296.5,100L290,88.3l3.1-0.4l4.4,8.2l2.3-9l2.9-0.4l-3.4,12.9l0.9,7.7l-2.9,0.4L296.5,100z"/>
		<path class="st2" d="M313.2,106.2c-1.3,0.2-2.4,0.1-3.3-0.2c-0.9-0.3-1.6-0.7-2.1-1.3s-1-1.3-1.3-2.2c-0.3-0.8-0.5-1.8-0.6-2.7
			l-0.8-6.3c-0.1-1-0.1-2-0.1-2.9s0.3-1.7,0.7-2.4s1-1.3,1.8-1.8c0.8-0.5,1.8-0.8,3.1-1c1.2-0.2,2.3-0.1,3.2,0.2
			c0.9,0.3,1.5,0.8,2.1,1.4c0.5,0.6,1,1.4,1.2,2.3c0.3,0.9,0.5,1.8,0.6,2.8l0.7,5.8c0.1,1,0.1,1.9,0.1,2.8c-0.1,0.9-0.3,1.7-0.7,2.5
			c-0.4,0.7-0.9,1.4-1.7,1.9C315.5,105.7,314.5,106,313.2,106.2z M312.9,103c1.1-0.1,1.9-0.5,2.4-1c0.5-0.6,0.6-1.5,0.5-2.9
			l-0.9-7.3c-0.2-1.3-0.5-2.3-1.2-2.7c-0.6-0.5-1.5-0.6-2.5-0.5c-1.1,0.1-1.9,0.5-2.5,1.1c-0.6,0.6-0.8,1.6-0.6,2.9l0.9,7.3
			c0.2,1.4,0.6,2.3,1.3,2.7C310.9,103,311.8,103.1,312.9,103z"/>
		<path class="st2" d="M328.8,104.3c-1.2,0.1-2.3,0.1-3.1-0.1c-0.8-0.2-1.5-0.6-2-1.2c-0.5-0.6-0.9-1.2-1.2-2
			c-0.3-0.8-0.5-1.7-0.6-2.6l-1.7-13.7l2.9-0.4l1.7,13.9c0.2,1.3,0.5,2.2,1.2,2.6c0.6,0.4,1.4,0.5,2.4,0.4c1-0.1,1.7-0.4,2.2-1
			c0.4-0.5,0.6-1.4,0.4-2.7l-1.7-13.9l2.9-0.4l1.6,13.5c0.1,1,0.1,1.9,0.1,2.7c-0.1,0.9-0.3,1.6-0.6,2.3c-0.3,0.7-0.9,1.2-1.6,1.7
			C331,103.8,330,104.1,328.8,104.3z"/>
		<path class="st2" d="M338.2,102.8l-2.4-20L342,82c1.3-0.2,2.3,0,3.1,0.4c0.8,0.4,1.3,1.1,1.7,1.9c0.4,0.9,0.6,1.9,0.8,3.1
			c0.1,0.8,0.1,1.6,0.1,2.3c0,0.7-0.2,1.4-0.4,2c-0.2,0.6-0.6,1.1-1.2,1.5l3.8,8.2l-3,0.4l-3.5-7.6l-3.3,0.4l1,7.9L338.2,102.8z
			 M339.8,91.6l3.6-0.4c0.5-0.1,0.9-0.2,1.1-0.6c0.2-0.3,0.4-0.7,0.4-1.2c0-0.5,0-1,0-1.6c-0.1-0.5-0.2-1.1-0.3-1.6
			c-0.1-0.5-0.4-0.9-0.6-1.2c-0.3-0.3-0.7-0.4-1.1-0.4l-3.7,0.4L339.8,91.6z"/>
		<path class="st2" d="M360.3,100.1l-2.1-17l-4,0.5l-0.4-3.1l10.9-1.3l0.4,3.1l-4,0.5l2.1,17L360.3,100.1z"/>
		<path class="st2" d="M367,79l2.9-0.4l1,8.5l6.3-0.8l-1-8.5l2.9-0.4l2.4,20l-2.9,0.4l-1-8.3l-6.3,0.8l1,8.3l-2.9,0.4L367,79z"/>
		<path class="st2" d="M384.7,94.1l2.6-0.3l-1.7-14l-2.6,0.3l-0.4-3l8.1-1l0.4,3l-2.6,0.3l1.7,14l2.6-0.3l0.4,3l-8.1,1L384.7,94.1z"
			/>
		<path class="st2" d="M396.6,95.7l-2.4-20l6.2-0.8c1.3-0.2,2.3,0,3.1,0.4c0.8,0.4,1.3,1.1,1.7,1.9c0.4,0.9,0.6,1.9,0.8,3.1
			c0.1,0.8,0.1,1.6,0.1,2.3c0,0.7-0.2,1.4-0.4,2c-0.2,0.6-0.6,1.1-1.2,1.5l3.8,8.2l-3,0.4l-3.5-7.6l-3.3,0.4l1,7.9L396.6,95.7z
			 M398.2,84.6l3.6-0.4c0.5-0.1,0.9-0.2,1.1-0.6c0.2-0.3,0.4-0.7,0.4-1.2c0-0.5,0-1,0-1.6c-0.1-0.5-0.2-1.1-0.3-1.6
			c-0.1-0.5-0.4-0.9-0.6-1.2c-0.3-0.3-0.7-0.4-1.1-0.4l-3.7,0.4L398.2,84.6z"/>
		<path class="st2" d="M416,93.7c-1,0.1-2,0.1-3-0.1c-1-0.2-2-0.5-2.7-1l0.6-3.1c0.6,0.3,1.3,0.6,2.1,0.9c0.8,0.2,1.7,0.3,2.6,0.2
			c0.6-0.1,1-0.2,1.3-0.5c0.3-0.3,0.4-0.6,0.5-1.1c0.1-0.4,0.1-0.9,0-1.5c0-0.4-0.1-0.7-0.3-1c-0.1-0.3-0.4-0.6-0.7-0.8
			c-0.3-0.2-0.8-0.4-1.4-0.6l-2.6-0.7c-0.8-0.2-1.5-0.6-2-1.1c-0.5-0.5-0.9-1.1-1.1-1.8c-0.3-0.7-0.4-1.5-0.5-2.3
			c-0.2-1.2-0.1-2.3,0.3-3.2c0.3-0.9,0.9-1.5,1.6-2c0.7-0.5,1.5-0.8,2.5-0.9c1-0.1,1.8-0.1,2.7,0.1c0.8,0.2,1.6,0.5,2.3,0.9
			l-0.5,2.9c-0.6-0.3-1.2-0.5-1.9-0.7c-0.7-0.2-1.3-0.2-2-0.1c-0.7,0.1-1.3,0.3-1.7,0.7c-0.4,0.4-0.5,1-0.4,1.8
			c0.1,0.7,0.3,1.2,0.6,1.5c0.3,0.3,0.8,0.6,1.6,0.8l2.6,0.7c1,0.3,1.8,0.8,2.4,1.7c0.6,0.8,1,2,1.2,3.6c0.1,1.1,0.1,2.2-0.1,3.1
			s-0.6,1.8-1.3,2.4C418,93.2,417.1,93.6,416,93.7z"/>
		<path class="st2" d="M426.2,92.1l-2.1-17l-4,0.5l-0.4-3.1l10.9-1.3l0.4,3.1l-4,0.5l2.1,17L426.2,92.1z"/>
		<path class="st2" d="M438,70.4l8.7-1.1l0.4,3.1l-5.8,0.7l0.7,5.5l5.4-0.7l0.4,2.9l-5.4,0.7l1,8.6l-2.9,0.4L438,70.4z"/>
		<path class="st2" d="M458,88.6c-1.3,0.2-2.4,0.1-3.3-0.2c-0.9-0.3-1.6-0.7-2.1-1.3c-0.5-0.6-1-1.3-1.2-2.2
			c-0.3-0.8-0.5-1.8-0.6-2.7L450,76c-0.1-1-0.1-2-0.1-2.9c0.1-0.9,0.3-1.7,0.7-2.4c0.4-0.7,1-1.3,1.8-1.8c0.8-0.5,1.8-0.8,3.1-1
			c1.2-0.2,2.3-0.1,3.2,0.2c0.9,0.3,1.5,0.8,2.1,1.4c0.5,0.6,0.9,1.4,1.2,2.3c0.3,0.9,0.5,1.8,0.6,2.8l0.7,5.8
			c0.1,1,0.1,1.9,0.1,2.8c-0.1,0.9-0.3,1.7-0.7,2.5c-0.4,0.7-0.9,1.4-1.7,1.9S459.3,88.5,458,88.6z M457.6,85.4
			c1.1-0.1,1.9-0.5,2.4-1c0.5-0.6,0.6-1.5,0.5-2.9l-0.9-7.3c-0.2-1.3-0.5-2.3-1.2-2.7c-0.6-0.5-1.5-0.6-2.5-0.5
			c-1.1,0.1-1.9,0.5-2.5,1.1c-0.6,0.6-0.8,1.6-0.6,2.9l0.9,7.3c0.2,1.4,0.6,2.3,1.3,2.7C455.7,85.4,456.6,85.6,457.6,85.4z"/>
		<path class="st2" d="M467.6,87.1l-2.4-20l6.2-0.8c1.3-0.2,2.3,0,3.1,0.4c0.8,0.4,1.3,1.1,1.7,1.9c0.4,0.9,0.6,1.9,0.8,3.1
			c0.1,0.8,0.1,1.6,0.1,2.3c0,0.7-0.2,1.4-0.4,2c-0.2,0.6-0.6,1.1-1.2,1.5l3.8,8.2l-3,0.4l-3.5-7.6l-3.3,0.4l1,7.9L467.6,87.1z
			 M469.2,75.9l3.6-0.4c0.5-0.1,0.9-0.2,1.1-0.6c0.2-0.3,0.4-0.7,0.4-1.2c0-0.5,0-1,0-1.6c-0.1-0.5-0.2-1.1-0.3-1.6
			c-0.1-0.5-0.4-0.9-0.6-1.2c-0.3-0.3-0.7-0.4-1.1-0.4l-3.7,0.4L469.2,75.9z"/>
		<path class="st2" d="M487.2,84.7l-2.4-20l3.2-0.4l5.3,9.3l2.9-10.3l3.3-0.4l2.4,20l-2.7,0.3l-1.8-14.8l-2.5,9.4l-1.9,0.2l-4.7-8.2
			l1.8,14.5L487.2,84.7z"/>
		<path class="st2" d="M511.5,82.1c-1.2,0.1-2.3,0.1-3.1-0.1c-0.8-0.2-1.5-0.6-2-1.2c-0.5-0.6-0.9-1.2-1.2-2
			c-0.3-0.8-0.5-1.7-0.6-2.6l-1.7-13.7l2.9-0.4l1.7,13.9c0.2,1.3,0.5,2.2,1.2,2.6c0.6,0.4,1.4,0.5,2.4,0.4c1-0.1,1.7-0.4,2.2-1
			c0.4-0.5,0.6-1.4,0.4-2.7L512,61.4l2.9-0.4l1.6,13.5c0.1,1,0.1,1.9,0.1,2.7c-0.1,0.9-0.3,1.6-0.6,2.3c-0.3,0.7-0.9,1.2-1.6,1.7
			C513.7,81.7,512.7,82,511.5,82.1z"/>
		<path class="st2" d="M525.8,80.4c-1,0.1-2,0.1-3-0.1c-1-0.2-2-0.5-2.7-1l0.6-3.1c0.6,0.3,1.3,0.6,2.1,0.9c0.8,0.2,1.7,0.3,2.6,0.2
			c0.6-0.1,1-0.2,1.3-0.5c0.3-0.3,0.4-0.6,0.5-1.1c0.1-0.4,0.1-0.9,0-1.5c0-0.4-0.1-0.7-0.3-1c-0.1-0.3-0.4-0.6-0.7-0.8
			c-0.3-0.2-0.8-0.4-1.4-0.6l-2.6-0.7c-0.8-0.2-1.5-0.6-2-1.1c-0.5-0.5-0.9-1.1-1.1-1.8c-0.3-0.7-0.4-1.5-0.5-2.3
			c-0.2-1.2-0.1-2.3,0.3-3.2c0.3-0.9,0.9-1.5,1.6-2s1.5-0.8,2.5-0.9c1-0.1,1.8-0.1,2.7,0.1c0.8,0.2,1.6,0.5,2.3,0.9l-0.5,2.9
			c-0.6-0.3-1.2-0.5-1.9-0.7c-0.7-0.2-1.3-0.2-2-0.1c-0.7,0.1-1.3,0.3-1.7,0.7c-0.4,0.4-0.5,1-0.4,1.8c0.1,0.7,0.3,1.2,0.6,1.5
			c0.3,0.3,0.8,0.6,1.6,0.8l2.6,0.7c1,0.3,1.8,0.8,2.4,1.7c0.6,0.8,1,2,1.2,3.6c0.1,1.1,0.1,2.2-0.1,3.1c-0.2,1-0.6,1.7-1.3,2.4
			S526.9,80.3,525.8,80.4z"/>
		<path class="st2" d="M532.8,76.1l2.6-0.3l-1.7-14l-2.6,0.3l-0.4-3l8.1-1l0.4,3l-2.6,0.3l1.7,14l2.6-0.3l0.4,3l-8.1,1L532.8,76.1z"
			/>
		<path class="st2" d="M550.5,77.4c-1.3,0.2-2.3,0.1-3.2-0.1c-0.8-0.3-1.5-0.7-2-1.2c-0.5-0.6-0.9-1.3-1.1-2.1
			c-0.3-0.8-0.4-1.7-0.6-2.7l-0.8-6.7c-0.1-1-0.2-2-0.1-2.8c0-0.9,0.2-1.7,0.6-2.4c0.3-0.7,0.9-1.3,1.7-1.7c0.8-0.5,1.8-0.8,3.1-0.9
			c1.2-0.1,2.2-0.1,3,0.2c0.8,0.3,1.4,0.7,1.9,1.3c0.5,0.6,0.8,1.3,1.1,2.1c0.2,0.8,0.4,1.8,0.5,2.8l0,0.2l-2.8,0.8l-0.1-1
			c-0.1-0.9-0.3-1.7-0.5-2.1c-0.2-0.5-0.6-0.8-1-1c-0.4-0.2-1-0.2-1.8-0.1c-1.1,0.1-1.8,0.5-2.3,1c-0.5,0.5-0.6,1.5-0.4,2.9l0.9,7.6
			c0.1,0.9,0.3,1.6,0.6,2.1c0.3,0.5,0.7,0.7,1.2,0.9c0.5,0.1,1.1,0.1,1.8,0c0.7-0.1,1.3-0.2,1.7-0.5c0.4-0.2,0.6-0.6,0.7-1.1
			c0.1-0.5,0.1-1.2,0-2.2l-0.1-0.6l2.8-0.3l0,0.4c0.1,1,0.2,1.9,0.1,2.8c0,0.8-0.2,1.6-0.5,2.3c-0.3,0.7-0.8,1.2-1.5,1.7
			C552.7,77,551.7,77.2,550.5,77.4z"/>
	</g>
</g>
</svg>
